#!OML:ASF H:\Dans Jumps\Project 1\Capture day 1\Session 1\subject.ASF
:FULLY-SPECIFIED
:DEGREES
939
root 0.271551 13.7903 1.6671 1.80903 -3.48029 1.6386
lowerback 17.1613 1.03405 -1.24806
upperback 11.3571 1.15812 0.516605
thorax 2.49276 0.485118 1.07787
lowerneck -16.6414 5.60654 1.66266
upperneck -6.18323 7.20867 -8.83928
head 1.28197 3.39568 -2.71192
rclavicle -9.14409e-015 0
rhumerus 2.66316 28.6113 -83.8778
rradius 58.2941
rwrist 25.9331
rhand -18.1574 -15.0415
rfingers 7.12502
rthumb 8.11843 -44.8656
lclavicle -9.14409e-015 0
lhumerus 3.44598 -19.171 73.8539
lradius 36.17
lwrist 15.8036
lhand -29.3718 -8.23516
lfingers 7.12502
lthumb -2.71075 21.7274
rfemur -49.392 -5.27161 17.3762
rtibia 89.6976
rfoot -37.0024 -17.0346
rtoes -3.48438
lfemur -46.8569 22.7922 -18.8777
ltibia 88.7428
lfoot -33.9817 11.2169
ltoes -19.2295
940
root 0.27081 13.7028 1.63292 1.85846 -3.5596 0.892566
lowerback 17.7025 1.07016 -1.08048
upperback 11.6107 1.21798 0.875206
thorax 2.48611 0.507719 1.34779
lowerneck -16.6534 5.71414 1.93968
upperneck -6.72881 7.27055 -9.25587
head 1.13928 3.42803 -2.90462
rclavicle 8.15017e-015 5.56597e-015
rhumerus 3.40423 28.6652 -82.992
rradius 58.7905
rwrist 25.7539
rhand -18.1684 -15.1674
rfingers 7.12502
rthumb 8.10785 -44.9918
lclavicle 8.15017e-015 5.56597e-015
lhumerus 4.7255 -19.6055 73.4812
lradius 36.3261
lwrist 15.8045
lhand -29.3772 -8.21022
lfingers 7.12502
lthumb -2.71596 21.7522
rfemur -50.0406 -6.33106 18.2711
rtibia 90.4028
rfoot -37.304 -16.2094
rtoes -3.85703
lfemur -47.8935 22.3543 -17.884
ltibia 90.3231
lfoot -33.6353 11.2509
ltoes -20.3265
941
root 0.27281 13.6161 1.6033 1.9285 -3.64928 0.0751371
lowerback 18.2541 1.11273 -0.819946
upperback 11.8318 1.30116 1.25952
thorax 2.44111 0.546152 1.58894
lowerneck -16.6122 5.75615 2.09427
upperneck -7.19526 7.26898 -9.61299
head 1.00203 3.43178 -3.06118
rclavicle -1.78906e-014 1.19271e-015
rhumerus 4.11323 28.6247 -82.0893
rradius 59.1696
rwrist 25.7957
rhand -18.0543 -15.0758
rfingers 7.12502
rthumb 8.2179 -44.896
lclavicle -1.78906e-014 1.19271e-015
lhumerus 5.98454 -20.1437 73.1048
lradius 36.3928
lwrist 15.6331
lhand -29.5011 -8.33828
lfingers 7.12502
lthumb -2.83562 21.6226
rfemur -50.6876 -7.33911 19.2449
rtibia 91.0743
rfoot -37.5099 -15.5106
rtoes -4.33628
lfemur -48.9094 21.9454 -16.7796
ltibia 91.9227
lfoot -33.3714 11.0671
ltoes -21.1734
942
root 0.274168 13.5351 1.57444 2.06113 -3.61542 -0.719426
lowerback 18.766 1.13338 -0.569735
upperback 12.0197 1.35906 1.66219
thorax 2.38226 0.570994 1.86007
lowerneck -16.4756 5.82776 2.31925
upperneck -7.7299 7.28864 -10.0408
head 0.834509 3.44849 -3.25762
rclavicle -2.18663e-015 1.27222e-014
rhumerus 4.77875 28.6041 -81.1177
rradius 59.5502
rwrist 25.3789
rhand -18.117 -14.8211
rfingers 7.12502
rthumb 8.15739 -44.6436
lclavicle -2.18663e-015 1.27222e-014
lhumerus 7.1652 -20.6728 72.7896
lradius 36.5442
lwrist 15.5664
lhand -29.5058 -8.22842
lfingers 7.12502
lthumb -2.84019 21.7324
rfemur -51.3497 -8.44307 20.2199
rtibia 91.7158
rfoot -37.6683 -14.8651
rtoes -4.91229
lfemur -50.0249 21.4143 -15.7332
ltibia 93.4503
lfoot -32.996 10.9747
ltoes -22.0726
943
root 0.27355 13.4478 1.54353 2.31158 -3.66677 -1.60956
lowerback 19.1924 1.1888 -0.327703
upperback 12.2243 1.46251 2.12655
thorax 2.38372 0.614461 2.19617
lowerneck -16.7767 5.86906 2.22503
upperneck -8.00709 7.33856 -10.2452
head 0.801224 3.47344 -3.30499
rclavicle -3.97569e-016 -1.35174e-014
rhumerus 5.74811 28.5907 -79.9614
rradius 59.7743
rwrist 24.3395
rhand -17.6473 -14.576
rfingers 7.12502
rthumb 8.61073 -44.3804
lclavicle -3.97569e-016 -1.35174e-014
lhumerus 8.46931 -21.0318 72.5109
lradius 36.6285
lwrist 15.6298
lhand -29.4271 -7.91403
lfingers 7.12502
lthumb -2.76415 22.0478
rfemur -52.2001 -9.33808 21.3283
rtibia 92.3664
rfoot -37.872 -14.0757
rtoes -5.22714
lfemur -51.3696 21.0276 -14.6217
ltibia 94.9524
lfoot -32.4531 11.0836
ltoes -23.2295
944
root 0.272479 13.3631 1.51247 2.54294 -3.49129 -2.45958
lowerback 19.6453 1.18013 -0.0429105
upperback 12.3532 1.49561 2.56878
thorax 2.294 0.627501 2.49579
lowerneck -16.5963 5.88499 2.29481
upperneck -8.45661 7.31356 -10.4825
head 0.634638 3.47471 -3.41198
rclavicle -3.37934e-015 7.95139e-015
rhumerus 6.25594 28.6367 -79.0004
rradius 60.0487
rwrist 24.352
rhand -19.1066 -14.4794
rfingers 7.12502
rthumb 7.20226 -44.3368
lclavicle -3.37934e-015 7.95139e-015
lhumerus 9.60431 -21.5773 72.188
lradius 36.7463
lwrist 15.7378
lhand -29.5121 -8.30254
lfingers 7.12502
lthumb -2.84631 21.6582
rfemur -52.9785 -10.4326 22.3784
rtibia 92.9992
rfoot -38.1239 -13.2871
rtoes -5.51818
lfemur -52.5874 20.4499 -13.49
ltibia 96.4545
lfoot -32.3915 10.3831
ltoes -22.7464
945
root 0.271593 13.2766 1.48104 2.82526 -3.45495 -3.29613
lowerback 20.1024 1.24124 0.174488
upperback 12.4727 1.61115 3.0241
thorax 2.18746 0.676824 2.83398
lowerneck -16.6118 5.93749 2.38138
upperneck -8.8177 7.33998 -10.7516
head 0.5361 3.49326 -3.52507
rclavicle -7.55382e-015 -7.95139e-015
rhumerus 6.92479 28.6014 -77.9156
rradius 60.3601
rwrist 24.3183
rhand -19.1663 -15.1577
rfingers 7.12502
rthumb 7.14467 -45.0171
lclavicle -7.55382e-015 -7.95139e-015
lhumerus 10.7409 -22.0195 71.921
lradius 36.8922
lwrist 15.8689
lhand -29.4741 -8.2209
lfingers 7.12502
lthumb -2.80954 21.7403
rfemur -53.8755 -11.3236 23.4566
rtibia 93.637
rfoot -38.2803 -12.6164
rtoes -5.82844
lfemur -53.8997 20.0818 -12.4252
ltibia 97.8694
lfoot -32.1683 9.91823
ltoes -22.6465
946
root 0.270041 13.1908 1.44762 3.17484 -3.21087 -4.06874
lowerback 20.5118 1.24121 0.369128
upperback 12.6028 1.64777 3.4815
thorax 2.12113 0.685185 3.20367
lowerneck -16.7842 5.91493 2.21096
upperneck -9.09825 7.31662 -10.776
head 0.461874 3.49107 -3.50453
rclavicle 6.75868e-015 -1.19271e-015
rhumerus 7.76915 28.4811 -76.755
rradius 60.6299
rwrist 24.0591
rhand -18.4623 -16.106
rfingers 7.12502
rthumb 7.82416 -45.9412
lclavicle 6.75868e-015 -1.19271e-015
lhumerus 12.0207 -22.4428 71.6193
lradius 36.9037
lwrist 16.1204
lhand -29.513 -8.27637
lfingers 7.12502
lthumb -2.84711 21.6844
rfemur -54.8518 -12.3962 24.488
rtibia 94.2888
rfoot -38.499 -11.8378
rtoes -5.76553
lfemur -55.3595 19.6057 -11.5687
ltibia 99.182
lfoot -31.7571 9.96394
ltoes -23.2008
947
root 0.271147 13.1137 1.41876 3.35742 -2.88054 -4.83986
lowerback 21.1047 1.20091 0.659818
upperback 12.7131 1.65651 3.91969
thorax 1.94812 0.686199 3.50249
lowerneck -16.692 5.93005 2.22242
upperneck -9.49743 7.30271 -10.9139
head 0.319408 3.49834 -3.5645
rclavicle -1.98785e-015 -2.38542e-015
rhumerus 8.3005 28.4559 -75.7296
rradius 60.7893
rwrist 23.5691
rhand -19.1783 -16.3534
rfingers 7.12502
rthumb 7.133 -46.2132
lclavicle -1.98785e-015 -2.38542e-015
lhumerus 13.0993 -22.9451 71.2879
lradius 37.2037
lwrist 16.3509
lhand -29.4545 -7.95022
lfingers 7.12502
lthumb -2.79066 22.0113
rfemur -55.5694 -13.5536 25.4915
rtibia 94.8848
rfoot -38.7686 -11.0392
rtoes -5.70412
lfemur -56.4986 19.187 -10.6915
ltibia 100.419
lfoot -31.6219 9.7751
ltoes -23.0374
